<?xml version="1.0" encoding="UTF-8"?>
<svg xmlns="http://www.w3.org/2000/svg" xmlns:xlink="http://www.w3.org/1999/xlink" viewBox="0 0 1036.83 568.33">
  <defs>
    <style>
      .cls-1 {
        clip-path: url(#clippath);
      }

      .cls-2 {
        fill: #f6f6f6;
      }

      .cls-3 {
        fill: #f9f9f9;
      }

      .cls-4, .cls-5 {
        fill: #012a4a;
      }

      .cls-6 {
        fill: #f4e987;
      }

      .cls-7, .cls-8 {
        fill: #f4f4f4;
      }

      .cls-9 {
        fill: #e8b628;
      }

      .cls-10, .cls-11 {
        fill: #fff;
      }

      .cls-12 {
        fill: #f4ebe1;
      }

      .cls-13 {
        fill: #eacdb0;
      }

      .cls-14 {
        fill: #6a8478;
      }

      .cls-15 {
        fill: #a16652;
      }

      .cls-16 {
        fill: #8e999e;
      }

      .cls-17 {
        fill: #aeccdc;
      }

      .cls-18 {
        fill: #a6caa2;
      }

      .cls-19 {
        fill: #c5db88;
      }

      .cls-20 {
        fill: #b22b48;
      }

      .cls-21 {
        fill: #1a428a;
      }

      .cls-22 {
        fill: #59595b;
      }

      .cls-23 {
        fill: #3a3029;
      }

      .cls-24 {
        fill: #2e4661;
      }

      .cls-8, .cls-25 {
        mix-blend-mode: multiply;
      }

      .cls-25 {
        opacity: .07;
      }

      .cls-26 {
        fill: #6596c1;
        opacity: .34;
      }

      .cls-27 {
        opacity: .22;
      }

      .cls-28 {
        opacity: .33;
      }

      .cls-29 {
        opacity: .23;
      }

      .cls-30 {
        opacity: .25;
      }

      .cls-31, .cls-5 {
        opacity: .36;
      }

      .cls-32 {
        isolation: isolate;
      }

      .cls-33 {
        fill: #89c2d9;
        opacity: .77;
      }

      .cls-11 {
        opacity: .31;
      }
    </style>
    <clipPath id="clippath">
      <rect class="cls-12" x="267.58" y="98.29" width="283.18" height="370.25" transform="translate(-.35 .51) rotate(-.07)"/>
    </clipPath>
  </defs>
  <g class="cls-32">
    <g id="Layer_2" data-name="Layer 2">
      <g id="Layer_4" data-name="Layer 4">
        <path class="cls-8" d="M988.35,442.57H145.43c-26.66,0-48.48,9.54-48.48,21.21h0c0,8.08,10.46,15.14,25.75,18.71H48.48c-26.66,0-48.48,9.54-48.48,21.21H0c0,11.67,21.81,21.21,48.48,21.21h25.86c-7.22,3.71-11.61,8.5-11.61,13.72v8.48c0,11.67,21.81,21.21,48.48,21.21H941.58c26.66,0,48.48-9.54,48.48-21.21v-8.48c0-11.67-21.81-21.21-48.48-21.21l-56.46,.47c4.3,0,11.28-1.48,15.97-4.47,8.21-5.23,8.58-13.2,4.56-19.79-2.6-4.27-6.78-7.66-17.11-8.94l99.8,.29c26.66,0,48.48-9.54,48.48-21.21h0c0-11.67-21.81-21.21-48.48-21.21Z"/>
      </g>
      <g id="object">
        <g>
          <rect class="cls-10" x="172.85" y="32.09" width="642.03" height="411.68"/>
          <rect class="cls-4" x="172.85" width="642.03" height="24.7"/>
          <rect class="cls-3" x="172.85" y="24.7" width="642.03" height="32.42"/>
          <rect class="cls-5" x="239.33" y="36.6" width="546.01" height="13.84"/>
          <g>
            <path class="cls-19" d="M199.73,11.33c0,2.24-1.82,4.06-4.06,4.06s-4.06-1.82-4.06-4.06,1.82-4.06,4.06-4.06,4.06,1.82,4.06,4.06Z"/>
            <path class="cls-6" d="M211.63,11.33c0,2.24-1.82,4.06-4.06,4.06s-4.06-1.82-4.06-4.06,1.82-4.06,4.06-4.06,4.06,1.82,4.06,4.06Z"/>
            <circle class="cls-20" cx="219.46" cy="11.33" r="4.06"/>
          </g>
          <g class="cls-31">
            <polygon class="cls-4" points="217.15 36.88 217.15 50.16 221.88 43.52 217.15 36.88"/>
            <polygon class="cls-4" points="197.98 50.16 197.98 36.88 193.25 43.52 197.98 50.16"/>
          </g>
        </g>
        <g>
          <rect class="cls-10" x="576.44" y="224.4" width="196.5" height="177.5"/>
          <g>
            <circle class="cls-18" cx="630.85" cy="283.25" r="28.12"/>
            <g>
              <g class="cls-28">
                <rect class="cls-17" x="674.39" y="262.46" width="87.84" height="11.01"/>
                <rect class="cls-17" x="674.39" y="297.84" width="87.84" height="11.01"/>
              </g>
              <g class="cls-28">
                <rect class="cls-17" x="602.73" y="334.57" width="159.51" height="11.01"/>
                <rect class="cls-17" x="602.73" y="367.87" width="159.51" height="11.01"/>
              </g>
            </g>
          </g>
        </g>
        <rect class="cls-25" x="246.03" y="124.22" width="284.52" height="356.87"/>
        <rect class="cls-10" x="266.56" y="96.86" width="284.52" height="356.87"/>
        <g>
          <rect class="cls-12" x="267.58" y="98.29" width="283.18" height="370.25" transform="translate(-.35 .51) rotate(-.07)"/>
          <g class="cls-1">
            <polygon class="cls-18" points="265.64 131.83 428.27 154.68 385.34 242.42 253.36 223.67 265.64 131.83"/>
            <path class="cls-4" d="M283.42,403.14c13.39,4.97,27.77,7.58,41.65,11.44,25.21,7.01,48.59,18.11,71.42,29.67,13.47,6.82,26.82,13.82,40.03,21,6.43,3.49,12.97,7.08,20.36,8.62,14.43,3.01,29.27-2.23,42.87-7.36,2.66-3.68,1.16-8.72-2.16-11.98-3.31-3.26-8.05-5.14-12.64-6.9-36.71-14.11-74.12-26.88-112.08-38.28-37.59-11.29-78.33-25.29-117.76-30.22-8.97,12.16,19.06,20.6,28.31,24.03Z"/>
            <path class="cls-10" d="M247.84,118.98c.13,5.13,.46,10.26,.83,15.4l329.64,46.82,2.86-14.88L247.84,118.98Z"/>
            <path class="cls-10" d="M245.31,216.04c-.19,2.52-.38,5.04-.55,7.57l327.83,46.56,1.43-7.44-328.71-46.68Z"/>
            <polygon class="cls-10" points="459.26 85.5 285.91 433.29 294.76 439.64 474.75 80.43 459.26 85.5"/>
            <path class="cls-18" d="M331.53,430.85c10.42,3.33,21.61,7.19,27.39,15.37,6.74,9.55,3.9,21.85-.38,32.39-3.04,7.49-7.5,15.49-16.05,18.45-8.2,2.84-17.44,.11-25.69-2.61-18.45-6.08-36.89-12.17-55.34-18.25-2.51-.83-5.09-1.69-7.09-3.23-3.42-2.64-4.59-6.77-5.4-10.66-2.65-12.86-10.54-48.01,10.1-51.97,9.75-1.87,22.79,4.64,31.48,7.42,13.66,4.37,27.32,8.73,40.98,13.1Z"/>
            <polygon class="cls-10" points="316.89 232.11 267.27 350.79 267.73 367.29 325.75 232.11 316.89 232.11"/>
            <polygon class="cls-10" points="296.74 299.7 345.77 313.2 349.32 306.07 300.95 289.87 296.74 299.7"/>
            <polygon class="cls-10" points="490.25 153.41 516.06 98.11 531.56 98.11 501.11 154.95 490.25 153.41"/>
            <polygon class="cls-10" points="314.23 128.41 325.75 98.11 335.33 98.38 323.03 131.83 314.23 128.41"/>
            <polygon class="cls-10" points="371.97 137.84 383.48 88.68 393.07 89.11 380.76 143.39 371.97 137.84"/>
            <polygon class="cls-10" points="360.18 309.09 551.07 379.11 550.94 392.04 355.38 318.66 360.18 309.09"/>
            <polygon class="cls-10" points="414.29 340.76 393.07 392.04 551.03 444.72 551.02 435.19 409.17 386.96 481.39 253.69 472.05 250.51 414.29 340.76"/>
            <polygon class="cls-10" points="409.17 206.72 560.32 236.46 560.32 221.59 409.17 193.72 409.17 206.72"/>
            <polygon class="cls-12" points="253.36 154.95 335.33 174.99 314.23 207.99 255.96 204.21 253.36 154.95"/>
            <polygon class="cls-9" points="608.72 189.68 404.65 493.78 379 481.04 583.07 176.94 608.72 189.68"/>
          </g>
        </g>
        <g>
          <g>
            <polygon class="cls-15" points="792.31 515 792.31 520.94 780.42 526.89 774.47 520.94 780.42 515 792.31 509.05 792.31 515"/>
            <g>
              <polygon class="cls-4" points="786.77 356.54 810.97 522.11 821.97 522.11 828.91 431.8 843.97 341.49 786.77 356.54"/>
              <polygon class="cls-4" points="810.85 335.47 810.85 353.53 786.77 431.8 792.79 513.08 780.99 515.44 753.66 416.75 754.58 387.52 765.7 327.91 810.85 335.47"/>
            </g>
            <polygon class="cls-15" points="822.05 520.94 822.05 526.89 810.16 532.84 804.21 526.89 810.16 520.94 822.05 520.94"/>
          </g>
          <g>
            <g>
              <path class="cls-13" d="M799.84,247.98c3.61-.49,7.22-.98,10.82-1.48-.07-2.9-.38-5.8-.91-8.66,2.98-1.17,6.41-2.89,6.82-6.07,.13-1-.08-2.01-.29-3-.86-4.08-1.72-8.16-2.58-12.24-.3-1.41-.61-2.86-1.43-4.05-1.43-2.08-4.1-2.92-6.6-3.26-6.4-.87-13.27,.76-18.05,5.11-1.27,1.16-2.41,2.53-2.93,4.17-.8,2.53-.03,5.25,.74,7.79,.71,2.34,1.42,4.68,2.12,7.02,.81,2.69,1.96,5.75,4.62,6.67,1.41,.49,3.05,.27,4.34,1.03,2.27,1.33,2.1,4.64,3.34,6.97Z"/>
              <path class="cls-23" d="M761.65,208.39c-.66-1-1.37-1.97-2.16-2.87-1.7-1.95-3.78-3.6-5.17-5.78-1.39-2.18-1.97-5.19-.47-7.3,.97-1.36,2.59-2.09,4.18-2.62,5.22-1.75,10.92-2.06,16.3-.9,5.13,1.11,9.75,3.08,14.79,.98,4.74-1.97,8.24-1.37,13.32,.24,5.5,1.74,12.82,1.93,17.84,4.48,2.1,1.07,3.8,2.79,5.15,4.72,4.68,6.67,5.05,16.1,.91,23.12-.93,1.58-2.06,3.02-3.24,4.41-2.46,2.87-5.4,6.42-8.89,7.58-.2-3.15,2.31-13.2-.21-15.7-4-3.96-12.64-2.21-17.37-1.02-5.16,1.29-9.66,5.15-14.79,6.13-3.69,.7-8.49-.94-11.72-2.74-3.98-2.23-6.05-9.06-8.47-12.72Z"/>
            </g>
            <g>
              <polygon class="cls-13" points="743.84 220.43 742.24 214.2 745.2 209.37 744.5 208.22 743.05 209.03 744.36 204.32 742.74 200.69 737.55 199.64 732.66 202.07 732.17 207.33 734.78 213.04 736.6 221.66 743.84 220.43"/>
              <polygon class="cls-9" points="746.06 213.86 751.86 254.07 798.43 244.06 781.98 280.49 735.72 275.97 733.91 216.94 746.06 213.86"/>
            </g>
            <polygon class="cls-13" points="867.09 220.98 869.32 214.91 866.85 209.77 867.67 208.7 869.04 209.66 868.2 204.8 870.19 201.34 875.49 200.81 880.13 203.75 880.1 209.06 876.9 214.5 874.2 222.94 867.09 220.98"/>
            <polygon class="cls-9" points="865.61 216.57 856.13 252.93 821.61 245.84 829.83 283.47 872.57 274.89 878.91 216.67 865.61 216.57"/>
            <path class="cls-9" d="M850.22,361.24c.16,7.36-.07,17.27-2.9,17.64-.53,.07-1.04-.19-1.5-.45-4.89-2.67-8.35-6.42-13.16-9-5.05-2.7-10.83-4.14-16.49-5.14-8.47-1.55-17.13-2.51-25.76-2.66-7.45-.13-16.5-.43-23.7,1.55-5.52,2.07-10.99,4.21-16.44,6.51,3.09-27.89,8.19-55.55,15.24-82.71,2.7-10.4,3.14-20.64,10.75-28.24,6.74-6.73,4.96-15.67,23.66-14.8,32.72,1.52,23.05-1.3,36.57,26.46,3.07,6.3,6.84,23.5,7.95,30.36,1.34,8.3,2.59,16.62,3.56,24.97,1.08,9.32,1.82,18.68,1.98,28.06,.02,1.04,.18,3.96,.26,7.46Z"/>
          </g>
        </g>
        <g>
          <g>
            <g>
              <g>
                <polygon class="cls-16" points="198.29 248.86 182.9 232.9 238.81 179.03 255.88 193.38 198.29 248.86"/>
                <path class="cls-24" d="M166.27,264.49l-.18-.18c-4.85-5.04-5.72-12.07-1.95-15.71l42.9-41.96,18.65,18.54-43.8,41.85c-3.78,3.64-10.77,2.51-15.63-2.53Z"/>
              </g>
              <g>
                <path class="cls-22" d="M337.39,193.8c26.54-25.57,27.33-67.82,1.76-94.36-25.57-26.54-67.82-27.33-94.36-1.76-26.54,25.57-27.33,67.82-1.76,94.36,25.57,26.54,67.82,27.33,94.36,1.76Zm-87.65-8.23c-22-22.83-21.32-59.18,1.51-81.18,22.83-22,59.18-21.32,81.18,1.51,22,22.83,21.32,59.18-1.51,81.18-22.83,22-59.18,21.32-81.18-1.51Z"/>
                <circle class="cls-33" cx="291.09" cy="145.74" r="57.41" transform="translate(13.95 316.53) rotate(-58.24)"/>
              </g>
            </g>
            <g>
              <g class="cls-27">
                <path class="cls-10" d="M303.4,106.18c17.82,4.18,30.99,19.75,31.62,38.12,.63,18.32-11.59,35.05-29.18,40.19-4.96,1.45-3.08,9.25,1.89,7.8,20.25-5.92,34.54-24.14,35.3-45.21,.75-20.77-12.54-39.56-31.75-46.91-1.86-.71-3.78-1.25-5.71-1.71-5.02-1.18-7.23,6.53-2.18,7.72h0Z"/>
              </g>
              <path class="cls-11" d="M295.32,194.2c-2.1,2.02-5.44,1.96-7.47-.14-2.02-2.1-1.96-5.44,.14-7.47,2.1-2.02,5.44-1.96,7.47,.14,2.02,2.1,1.96,5.44-.14,7.47Z"/>
            </g>
          </g>
          <path class="cls-15" d="M207.61,207.48l17.74,17.64c.61,.61,1.58,.65,2.24,.11l.22-.18c.77-.63,.82-1.8,.11-2.49l-17.94-17.48c-.67-.65-1.75-.63-2.39,.05l-.02,.02c-.62,.66-.6,1.69,.04,2.33Z"/>
          <path class="cls-14" d="M277.06,199.96c-13.37-3.41-25.12-11.52-32.97-22.89-7.74-11.22-11.11-24.97-9.68-38.5,1.46-13.83,8.31-26.77,18.59-36.05,10.02-9.04,23.25-14.15,36.71-14.47,13.96-.33,27.81,4.73,38.36,13.84,10.16,8.78,17,21.2,19.01,34.47,2.1,13.85-1.15,28.16-8.81,39.87-7.37,11.27-18.89,19.52-31.78,23.27-9.57,2.78-19.78,2.86-29.44,.47-1.91-.47-2.66,2.49-.74,2.96,13.42,3.32,27.5,1.92,40.03-3.89,12.24-5.67,22.31-15.66,28.26-27.73,6.18-12.52,7.7-27.01,4.47-40.57-3.11-13.03-10.83-24.84-21.36-33.08-11.01-8.61-24.93-13.07-38.89-12.64-13.49,.42-26.51,5.65-36.79,14.31-10.58,8.91-17.66,21.57-20.09,35.15-2.41,13.46,.03,27.44,6.6,39.41,7.93,14.45,21.86,24.99,37.79,29.04,1.91,.49,2.65-2.48,.74-2.96Z"/>
        </g>
        <g>
          <g>
            <path class="cls-7" d="M651.77,81.51h181.52c7.35,0,13.32,5.97,13.32,13.32v96.71c0,7.35-5.97,13.32-13.32,13.32h-181.52c-7.35,0-13.32-5.97-13.32-13.32V94.83c0-7.35,5.97-13.32,13.32-13.32Z"/>
            <rect class="cls-7" x="846.61" y="81.51" width="99.57" height="123.35" rx="15.2" ry="15.2"/>
          </g>
          <g id="YR5ZOS">
            <path class="cls-21" d="M705.22,160.24c0,2.89,0,5.77,0,8.65,0,.56-.38,.88-.97,.88-1.29,0-2.57,0-3.86,0-14.17,0-28.34-.01-42.51,.02-1.38,0-2.41-.5-3.26-1.48-1.55-1.8-2.47-3.83-2.4-6.28,.12-4.25,0-8.51,.29-12.75,.16-2.44,.8-4.86,1.43-7.24,.66-2.48,1.56-4.89,2.38-7.32,.14-.43,.38-.83,.62-1.21,.38-.6,.93-.89,1.67-.89,5.5,.01,11,0,16.49,.01,1.48,0,3.52,1.77,4.16,3.36,.95,2.36,1.83,4.77,3.02,7.01,4.64,8.74,11.86,14.27,21.39,16.8,.46,.12,.92,.24,1.38,.36,.04,.01,.07,.04,.19,.09Zm-38.96-15.09c3.42,0,6.84,0,10.27,0,.89,0,1.09-.18,1.15-1.06,.02-.28-.03-.58-.09-.86-.15-.64-.31-1.29-.5-1.92-.48-1.62-.97-3.25-1.49-4.86-.2-.62-.63-.92-1.36-.91-4.87,.03-9.75,.02-14.62,.02-1.95,0-1.98,.02-2.66,1.86-.03,.08-.05,.16-.08,.24-.53,1.59-1.09,3.17-1.57,4.78-.18,.6-.22,1.25-.24,1.88-.02,.58,.26,.86,.92,.85,3.42-.03,6.84-.02,10.27-.01Zm18.52,13.97c.05-.14,.07-.18,.07-.22,0-2.68,.01-5.35,0-8.03,0-.18-.11-.39-.23-.54-.8-.95-1.62-1.89-2.43-2.83-.29-.33-.59-.65-.9-.99-.06,.09-.08,.11-.08,.12,.12,3.44,.24,6.88,.37,10.32,0,.12,.08,.3,.18,.36,.98,.61,1.98,1.19,3.02,1.81Zm1.93-6.5c0,2.49,0,4.87,0,7.24,0,.12,.06,.31,.16,.36,1.01,.55,2.03,1.08,3.13,1.66-.07-2.24-.14-4.35-.22-6.46,0-.15-.15-.33-.28-.45-.89-.77-1.8-1.52-2.79-2.36Zm7.75,10.78c.04-.17,.06-.21,.06-.25,0-1.1,.08-5.18,.09-5.53-.45-.12-2.67-.9-3.18-1.14,0,1.95,0,3.75,.01,5.55,0,.17,.18,.43,.33,.48,.87,.32,1.76,.59,2.67,.89Zm-35.46-5.75c-.01-1.3-.67-2.21-1.58-2.37-.85-.15-1.78,.43-2.15,1.34-.33,.81-.2,1.59,.25,2.31,.41,.66,1.02,1.06,1.82,.96,.78-.09,1.24-.63,1.47-1.34,.11-.35,.15-.72,.19-.91Zm16.43,0c0-1.25-.63-2.15-1.51-2.35-.83-.18-1.75,.33-2.17,1.21-.38,.8-.29,1.58,.13,2.32,.4,.72,1.02,1.17,1.87,1.08,.81-.09,1.27-.65,1.5-1.39,.1-.33,.14-.69,.17-.87Zm20.36,6.28c.8,.16,1.58,.32,2.44,.5,0-1.67,0-3.2,0-4.73,0-.11-.12-.28-.21-.32-.72-.23-1.45-.44-2.22-.67v5.21Zm5.69-3.51c-.65-.16-1.3-.31-2.01-.49v4.95s1.95,.23,2.01,.2v-4.67Zm1.05,.25c0,1.42-.09,4.41,0,4.42,.45,.09,1.14,.16,1.66,.22,0-1.41,0-4.37,0-4.37-.42-.11-1.15-.2-1.66-.28Z"/>
            <rect class="cls-21" x="665.93" y="134.52" width="1.56" height="12.15"/>
            <path class="cls-21" d="M681.22,146.38s6.1,11.79,22.98,14.56l.14-.5s-7.78-1.86-13.04-5.18c-5.26-3.32-10.07-9.85-10.07-9.85v.96Z"/>
            <path class="cls-21" d="M679.57,155.03s7.96,10.63,25.06,10.57l.05-.51s-7.98-.55-13.72-2.96c-5.73-2.4-11.56-8.06-11.56-8.06l.16,.95Z"/>
            <path class="cls-21" d="M704.62,162.63c-19.06-3.54-23.77-13.51-23.96-13.93l.68-.31c.05,.1,4.77,10.04,23.42,13.51l-.14,.73Z"/>
            <rect class="cls-2" x="659.95" y="155.24" width="10.5" height="4.04"/>
          </g>
          <path class="cls-21" d="M705.19,172.68h0v-1.41h-52.98v6.12h29.5l.36-.25s4.89-3.05,23.12-3.05v-1.41h0Z"/>
          <g>
            <path class="cls-4" d="M846.61,95.14v-1.68c0-6.6-5.35-11.95-11.95-11.95h-184.27c-6.6,0-11.95,5.35-11.95,11.95v10.06h208.17v-8.38Z"/>
            <path class="cls-4" d="M946.18,103.52v-8.38c0-7.53-6.1-13.63-13.63-13.63h-72.31c-7.53,0-13.63,6.1-13.63,13.63v8.38h99.57Z"/>
          </g>
          <g class="cls-30">
            <rect x="855.43" y="183.1" width="11.36" height="4.39"/>
            <rect x="855.43" y="163.96" width="11.36" height="10.36"/>
            <rect x="855.43" y="125.48" width="11.36" height="23.95"/>
            <rect x="855.43" y="179.44" width="11.36" height="2.2"/>
            <rect x="855.43" y="121.78" width="11.36" height="2.2"/>
            <rect x="855.43" y="175.78" width="11.36" height="2.2"/>
            <rect x="855.43" y="160.3" width="11.36" height="2.2"/>
            <rect x="855.43" y="156.22" width="11.36" height="2.2"/>
            <rect x="855.43" y="152.8" width="11.36" height="2.2"/>
            <rect x="855.43" y="118.11" width="11.36" height="2.2"/>
            <rect x="855.43" y="114.7" width="11.36" height="2.2"/>
            <rect x="855.43" y="151.04" width="11.36" height=".55"/>
            <rect x="855.43" y="149.27" width="11.36" height=".55"/>
          </g>
          <g class="cls-29">
            <rect class="cls-17" x="740.74" y="120.42" width="98.23" height="4.15"/>
            <rect class="cls-17" x="719.98" y="138.5" width="118.99" height="7.27"/>
            <rect class="cls-17" x="719.98" y="159.71" width="118.99" height="7.27"/>
            <rect class="cls-17" x="743.73" y="179.92" width="95.24" height="5.27"/>
          </g>
          <rect class="cls-26" x="898.46" y="122.49" width="34.08" height="7.04"/>
          <rect class="cls-26" x="898.46" y="151.48" width="34.08" height="7.04"/>
        </g>
        <g>
          <circle class="cls-10" cx="408.55" cy="246.06" r="17.53" transform="translate(-54.33 360.96) rotate(-45)"/>
          <path class="cls-4" d="M376.01,248.4c0,17.97,31.64,60.66,32.53,60.66,1.2,0,32.53-42.69,32.53-60.66s-14.57-32.53-32.53-32.53-32.53,14.57-32.53,32.53Zm17.2-2.34c0-8.47,6.86-15.33,15.33-15.33s15.33,6.86,15.33,15.33-6.86,15.33-15.33,15.33-15.33-6.86-15.33-15.33Z"/>
        </g>
      </g>
    </g>
  </g>
</svg>