<?xml version="1.0" encoding="UTF-8"?>
<svg id="Layer_2" data-name="Layer 2" xmlns="http://www.w3.org/2000/svg" viewBox="0 0 168.09 141.95">
  <g id="Object">
    <g>
      <g id="YR5ZOS">
        <path d="M168.08,87.59c0,9.16,.03,18.29-.02,27.43,0,1.79-1.22,2.78-3.09,2.78-4.08,.01-8.16,0-12.23,0-44.92,0-89.85-.05-134.77,.07-4.38,.01-7.65-1.58-10.34-4.7C2.71,107.48-.2,101.03,.01,93.26c.37-13.48,.01-26.99,.91-40.43,.51-7.72,2.53-15.41,4.53-22.94,2.09-7.85,4.94-15.51,7.53-23.22,.45-1.35,1.2-2.63,1.97-3.84C16.16,.93,17.91,0,20.24,0c17.43,.03,34.86-.01,52.29,.04,4.7,.01,11.15,5.6,13.18,10.65,3,7.48,5.8,15.12,9.56,22.22,14.7,27.71,37.59,45.23,67.83,53.27,1.46,.39,2.93,.75,4.39,1.13,.12,.03,.24,.11,.59,.28ZM44.58,39.75c10.85,0,21.7,0,32.55,0,2.81,0,3.47-.56,3.65-3.36,.06-.9-.09-1.84-.3-2.72-.48-2.04-1-4.08-1.6-6.09-1.53-5.15-3.07-10.3-4.72-15.41-.64-1.97-1.98-2.9-4.32-2.89-15.45,.11-30.9,.06-46.36,.06-6.18,0-6.29,.08-8.43,5.9-.09,.25-.17,.5-.25,.75-1.67,5.04-3.44,10.06-4.96,15.15-.57,1.9-.68,3.97-.75,5.96-.06,1.84,.83,2.72,2.93,2.7,10.85-.1,21.7-.05,32.55-.05Zm58.71,44.3c.16-.45,.24-.57,.24-.69,.02-8.48,.04-16.97,0-25.45,0-.58-.36-1.25-.74-1.71-2.54-3.02-5.12-6-7.71-8.97-.92-1.06-1.88-2.07-2.86-3.15-.19,.29-.25,.34-.25,.39,.39,10.9,.77,21.81,1.19,32.71,.01,.39,.25,.94,.56,1.13,3.11,1.92,6.26,3.78,9.57,5.75Zm6.12-20.6c0,7.88,0,15.42,.02,22.96,0,.39,.21,.99,.5,1.15,3.19,1.74,6.42,3.41,9.93,5.26-.23-7.11-.43-13.79-.7-20.47-.02-.49-.48-1.06-.89-1.41-2.83-2.43-5.7-4.82-8.86-7.48Zm24.56,34.18c.14-.53,.2-.65,.2-.78,.01-3.48,.26-16.43,.29-17.53-1.44-.38-8.46-2.87-10.07-3.61,0,6.17-.03,11.88,.05,17.58,0,.53,.57,1.35,1.06,1.53,2.75,1.01,5.56,1.87,8.47,2.81ZM21.54,79.4c-.04-4.11-2.13-7-5.01-7.51-2.69-.48-5.64,1.35-6.81,4.26-1.04,2.58-.63,5.05,.8,7.34,1.3,2.1,3.22,3.36,5.76,3.06,2.48-.3,3.93-1.99,4.67-4.26,.36-1.11,.49-2.3,.61-2.88Zm52.09-.03c-.02-3.95-2.01-6.82-4.79-7.44-2.63-.58-5.55,1.04-6.87,3.82-1.19,2.52-.9,5.01,.4,7.37,1.27,2.29,3.23,3.72,5.94,3.42,2.57-.28,4.02-2.06,4.75-4.42,.33-1.06,.44-2.18,.55-2.75Zm64.56,19.9c2.54,.52,5.01,1.02,7.75,1.57,0-5.3,.01-10.14-.03-14.98,0-.35-.37-.9-.68-1-2.29-.74-4.6-1.4-7.04-2.11v16.53Zm18.03-11.12c-2.07-.5-4.11-1-6.38-1.54v15.71c.11,0,6.18,.73,6.38,.63v-14.79Zm3.34,.78c0,4.5-.28,13.97,0,14.02,1.44,.27,3.6,.51,5.25,.71,0-4.47,0-13.84,0-13.84-1.32-.33-3.65-.64-5.25-.89Z"/>
        <rect x="43.5" y="6.05" width="4.93" height="38.53"/>
        <path d="M91.98,43.65s19.33,37.39,72.84,46.17l.43-1.58s-24.67-5.9-41.34-16.42c-16.67-10.52-31.93-31.24-31.93-31.24v3.06Z"/>
        <path d="M86.75,71.08s25.23,33.69,79.46,33.52l.16-1.63s-25.3-1.75-43.48-9.37c-18.18-7.62-36.64-25.54-36.64-25.54l.5,3.02Z"/>
        <path d="M166.16,95.16c-60.44-11.24-75.36-42.83-75.97-44.17l2.16-.98c.14,.32,15.13,31.83,74.24,42.82l-.43,2.33Z"/>
        <rect x="24.56" y="71.74" width="33.3" height="12.8"/>
      </g>
      <path d="M167.96,127.01h0v-4.48H0v19.42H93.51l1.15-.8c.14-.1,15.51-9.66,73.3-9.66v-4.48h0Z"/>
    </g>
  </g>
</svg>