<svg xmlns="http://www.w3.org/2000/svg" viewBox="0 0 790.49 282.98"><defs><style>.cls-1,.cls-2,.cls-3{fill:#fff;}.cls-2{font-size:57.27px;font-family:OpenSans-SemiBoldItalic, Open Sans;font-weight:600;font-style:italic;letter-spacing:0.1em;}.cls-3{font-size:132.47px;font-family:OpenSans-ExtraBold, Open Sans;font-weight:800;letter-spacing:0.2em;}</style></defs><g id="Layer_2" data-name="Layer 2"><g id="Layer_1-2" data-name="Layer 1"><path class="cls-1" d="M263.8,142.37a64,64,0,0,0-7.38-13.08,62.38,62.38,0,0,0-12.9-12.76c-14.11-10.14-30.13-10.68-37.2-10.83-18.87-.4-17.88,5.93-34.65,5.83-21.7-.13-26.22-10.74-48.18-9.17a64,64,0,0,0-22.82,5.84,58.58,58.58,0,0,0-18.8,14.52c9.95,5.94,18.3,14.47,23,24.65,13.24,28.57-4.58,64.61-29.54,79,6.92,16.64,18.76,36.51,38,46.86,7.65,4.11,15.3,8.22,24.52,6.66,9.6-1.62,13.72-8.18,24.51-7.5,3.74.24,6.72,1.27,12.68,3.34,9.6,3.32,11.4,5.78,16.9,6.66,7,1.13,12.85-1.5,16.91-3.33,25.22-11.39,44-52.11,49-63.34,10.85-24.11,11.66-35.53,11.83-40A78.86,78.86,0,0,0,263.8,142.37Z"/><path class="cls-1" d="M174.1,102a8.67,8.67,0,0,1-1.74-.49c-3.87-1.52-7-5.42-8.17-6.93a52.88,52.88,0,0,1-6.45-11,81,81,0,0,1-4-11.34c-1-3.52-.64-3.14-2.52-11.1-2-8.27-2.7-10.28-3.21-11.54-1.55-3.8-2.72-6.12-2.72-6.12a26.7,26.7,0,0,1,6.13,4A56.58,56.58,0,0,1,162.71,61.6C171.89,77.66,173.85,99,174.1,102Z"/><path class="cls-1" d="M174.65,102.07a40,40,0,0,1-1.72-4.86c-3.08-11-.59-21,.4-24.85a67.89,67.89,0,0,1,10.7-22,84.84,84.84,0,0,1,14.9-15.62c5-4.12,4.85-3,16.78-11.43,12.39-8.73,15-11.57,16.53-13.5A103.69,103.69,0,0,0,239.46,0a73.19,73.19,0,0,1,1.85,18.15c0,1.76-.57,19.54-9.05,36.34C216.43,85.88,179.75,100.15,174.65,102.07Z"/><path class="cls-1" d="M23.49,245.08A47.43,47.43,0,0,0,0,259.23a62,62,0,0,0,14.5,13C30.44,282.89,46.8,282.94,59,283a126.32,126.32,0,0,0,23.34-2.36C74.76,258.82,48.59,239.2,23.49,245.08Z"/><text class="cls-2" transform="translate(498.21 266.19)">by Adam</text><text class="cls-3" transform="translate(314.51 191.34)">BLOG</text></g></g></svg>